<?xml version="1.0" encoding="utf-8"?>
<!-- Svg Vector Icons : http://www.onlinewebfonts.com/icon -->
<!DOCTYPE svg PUBLIC "-//W3C//DTD SVG 1.1//EN" "http://www.w3.org/Graphics/SVG/1.1/DTD/svg11.dtd">
<svg version="1.1" xmlns="http://www.w3.org/2000/svg" xmlns:xlink="http://www.w3.org/1999/xlink" x="0px" y="0px" viewBox="0 0 256 256" enable-background="new 0 0 256 256" xml:space="preserve">
<metadata> Svg Vector Icons : http://www.onlinewebfonts.com/icon </metadata>
<g><g><path fill="#000000" d="M229.2,134.8h-21.8v-21.3c0-9.1-7.5-16.4-16.8-16.4c-9.3,0-16.8,7.4-16.8,16.4v21.3h-21.8c-9.3,0-16.8,7.4-16.8,16.5c0,9.1,7.5,16.4,16.8,16.4h21.8V189c0,9.1,7.5,16.4,16.8,16.4s16.8-7.4,16.8-16.4v-21.3h21.8c9.3,0,16.8-7.4,16.8-16.4C246,142.1,238.5,134.8,229.2,134.8z M98,102c24.3,0,44-19.2,44-43c0-23.7-19.7-43-44-43c-24.3,0-44,19.2-44,43C54,82.7,73.7,102,98,102z M148.7,186.3c0,0-40.9,4.1-37.6-34.5c1.4-16.3,12.5-23.3,23-26.3c-11.2-7.2-23.7-11.3-37-11.3C49,114.2,10,167.6,10,233.4c0,2.2,0,4.4,0.1,6.6h174c0.1-2.2,0.1-4.4,0.1-6.6c0-3.1-0.1-6.2-0.3-9.3C171.3,223.7,148.4,218.4,148.7,186.3z"/></g></g>
</svg>